#N canvas 204 12 376 230 10;
#N canvas 29 15 662 641 GetPitch 0;
#X obj 125 100 adc~;
#X obj 45 543 sendOSC;
#X obj 45 4 loadbang;
#X floatatom 132 210 5 0 0 3 Cooked_Pitch - -;
#X obj 234 203 bng 15 250 50 0 empty empty Bang_on_Attack 0 -6 0 10
-262144 -1 -1;
#X obj 414 191 unpack;
#X floatatom 375 217 5 0 0 3 Raw_Pitch - -;
#X floatatom 447 218 5 0 0 3 Amplitude - -;
#X floatatom 503 192 5 0 0 3 Amplitude_(dB) - -;
#X floatatom 45 581 5 0 0 3 Connected(==1) - -;
#X floatatom 160 583 5 0 0 3 Num_Of_Bundles - -;
#X msg 500 458 [;
#X msg 96 454 ];
#X obj 252 390 float;
#X text 16 81 =====================================;
#X floatatom 252 420 5 0 0 0 - - -;
#X msg 45 38 connect localhost 5555;
#X msg 24 60 disconnect;
#X msg 385 456 send /Pitch \$1;
#X obj 138 293 trigger b f;
#X obj 142 390 float;
#X floatatom 142 422 5 0 0 0 - - -;
#X msg 244 313 1;
#X obj 279 313 receive ResetAttack;
#X msg 296 536 \; ResetAttack 0;
#X obj 234 229 trigger b b;
#X obj 126 136 fiddle~;
#X msg 142 455 send /Attack \$1;
#X text 294 565 Reset the Attack parameter to zero;
#X obj 138 339 trigger b b b b b;
#X obj 194 391 float;
#X floatatom 194 421 5 0 0 0 - - -;
#X msg 252 455 send /Amplitude \$1;
#X floatatom 138 270 5 0 0 2 Pitch - -;
#X obj 439 264 select 0;
#X obj 282 70 loadbang;
#X text 381 101 Min amplitude allowed;
#X text 375 128 Min cooked pitch time;
#X obj 57 118 loadbang;
#X obj 57 146 metro 10;
#X obj 79 179 float 0;
#X msg 459 298 \; ResetPitch 0;
#X obj 6 211 receive ResetPitch;
#X text 456 327 Reset the Pitch to zero;
#X text 457 338 when no Pitch is inputted;
#X text 50 23 Connect to OSC;
#X msg 208 21 \; pd dsp 1 \;;
#X text 205 5 Enable audio processing;
#X text 89 59 Disconnect from OSC;
#X msg 282 102 amp-range 70 70;
#X msg 283 128 vibrato 30 0.5;
#X connect 0 0 26 0;
#X connect 1 0 9 0;
#X connect 1 1 10 0;
#X connect 2 0 16 0;
#X connect 2 0 46 0;
#X connect 3 0 33 0;
#X connect 4 0 25 0;
#X connect 5 0 6 0;
#X connect 5 1 7 0;
#X connect 6 0 34 0;
#X connect 7 0 30 1;
#X connect 11 0 1 0;
#X connect 12 0 1 0;
#X connect 13 0 15 0;
#X connect 15 0 18 0;
#X connect 16 0 1 0;
#X connect 17 0 1 0;
#X connect 18 0 1 0;
#X connect 19 0 29 0;
#X connect 19 1 13 1;
#X connect 20 0 21 0;
#X connect 21 0 27 0;
#X connect 22 0 20 1;
#X connect 23 0 20 1;
#X connect 25 0 33 0;
#X connect 25 1 22 0;
#X connect 26 0 40 1;
#X connect 26 1 4 0;
#X connect 26 2 5 0;
#X connect 26 3 8 0;
#X connect 27 0 1 0;
#X connect 27 0 24 0;
#X connect 29 0 12 0;
#X connect 29 1 20 0;
#X connect 29 2 30 0;
#X connect 29 3 13 0;
#X connect 29 4 11 0;
#X connect 30 0 31 0;
#X connect 31 0 32 0;
#X connect 32 0 1 0;
#X connect 33 0 19 0;
#X connect 34 0 41 0;
#X connect 35 0 49 0;
#X connect 35 0 50 0;
#X connect 38 0 39 0;
#X connect 39 0 40 0;
#X connect 40 0 3 0;
#X connect 42 0 40 1;
#X connect 49 0 26 0;
#X connect 50 0 26 0;
#X restore 22 37 pd GetPitch;
#N canvas 30 29 979 622 GetMidi 0;
#X obj 165 105 notein;
#X obj 585 221 noteout;
#X floatatom 509 169 5 0 0 0 Note/Pitch - -;
#X floatatom 604 170 5 0 0 0 Velocity - -;
#X floatatom 708 171 5 0 0 0 Channel - -;
#X floatatom 92 140 5 0 0 0 Note/Pitch - -;
#X floatatom 182 140 5 0 0 0 Velocity - -;
#X floatatom 236 139 5 0 0 1 Channel/Instrument - -;
#X obj 855 -12 ctlin;
#X obj 853 81 pgmin;
#X obj 859 181 bendin;
#X obj 860 272 touchin;
#X obj 854 366 polytouchin;
#X obj 852 47 ctlout;
#X obj 861 235 bendout;
#X obj 860 332 touchout;
#X obj 846 425 polytouchout;
#X obj 853 140 pgmout;
#X obj 5 -19 loadbang;
#X msg 171 11 \; pd dsp 1 \;;
#X text 171 -5 Enable audio processing;
#X floatatom 821 19 5 0 0 0 - - -;
#X floatatom 865 18 5 0 0 0 - - -;
#X floatatom 905 17 5 0 0 0 - - -;
#X floatatom 840 114 5 0 0 0 - - -;
#X floatatom 883 114 5 0 0 0 - - -;
#X floatatom 856 209 5 0 0 0 - - -;
#X floatatom 895 209 5 0 0 0 - - -;
#X floatatom 855 304 5 0 0 0 - - -;
#X floatatom 899 303 5 0 0 0 - - -;
#X floatatom 837 395 5 0 0 0 - - -;
#X floatatom 877 395 5 0 0 0 - - -;
#X floatatom 918 395 5 0 0 0 - - -;
#X msg 5 18 connect localhost 4444;
#X msg 19 44 disconnect;
#X text 11 3 Connect to OSC;
#X text 85 43 Disconnect from OSC;
#X text 4 64 ===========================================;
#X obj 10 462 sendOSC;
#X floatatom 10 500 5 0 0 3 Connected(==1) - -;
#X floatatom 105 501 5 0 0 3 Num_Of_Bundles - -;
#X msg 42 413 ];
#X msg 79 413 send /Channel \$1;
#X obj 116 350 float;
#X obj 180 349 float;
#X obj 239 348 float;
#X obj 568 80 spigot;
#X obj 617 59 tgl 15 0 empty empty Play_Sounds 20 7 0 10 -262144 -1
-1 1 1;
#X floatatom 101 382 5 0 0 0 - - -;
#X floatatom 189 379 5 0 0 0 - - -;
#X floatatom 284 379 5 0 0 0 - - -;
#X obj 514 17 r Note;
#X obj 570 16 r Velocity;
#X obj 645 17 r Channel;
#X obj 92 166 s Note;
#X obj 166 166 s Velocity;
#X obj 244 166 s Channel;
#X obj 542 49 pack f f f;
#X obj 279 318 r Note;
#X obj 52 309 r Channel;
#X obj 105 238 r Velocity;
#X text 424 222 Output MIDI to speakers-->;
#X msg 295 412 send /Velocity \$1;
#X msg 193 413 send /Note \$1;
#X msg 491 416 [;
#X text 485 -4 Play the MIDI notes with a 3 second delay;
#X text 82 87 Read in MIDI data which is currently playing;
#X obj 105 284 > 0;
#X obj 181 239 select 1;
#X obj 181 263 float;
#X text 56 210 Send MIDI Note \, Velocity \, and Channel using OSC
(If the Velocity is greater than 0);
#X obj 105 261 t f f;
#X floatatom 490 471 5 0 0 0 - - -;
#X msg 490 496 send /Hour \$1;
#X obj 490 442 time ____________________________________;
#X floatatom 583 472 5 0 0 0 - - -;
#X msg 583 497 send /Minute \$1;
#X floatatom 689 474 5 0 0 0 - - -;
#X floatatom 792 475 5 0 0 0 - - -;
#X msg 689 499 send /Second \$1;
#X msg 792 499 send /Millisecond \$1;
#X obj 181 285 trigger b f;
#X obj 131 309 trigger b b b b b b;
#X obj 568 109 pipe f f f 3000;
#X text 663 108 <--Wait 3 seconds;
#X connect 0 0 5 0;
#X connect 0 1 6 0;
#X connect 0 2 7 0;
#X connect 2 0 1 0;
#X connect 3 0 1 1;
#X connect 4 0 1 2;
#X connect 5 0 54 0;
#X connect 6 0 55 0;
#X connect 7 0 56 0;
#X connect 8 0 21 0;
#X connect 8 1 22 0;
#X connect 8 2 23 0;
#X connect 9 0 24 0;
#X connect 9 1 25 0;
#X connect 10 0 26 0;
#X connect 10 1 27 0;
#X connect 11 0 28 0;
#X connect 11 1 29 0;
#X connect 12 0 30 0;
#X connect 12 1 31 0;
#X connect 12 2 32 0;
#X connect 18 0 19 0;
#X connect 18 0 33 0;
#X connect 21 0 13 0;
#X connect 22 0 13 1;
#X connect 23 0 13 2;
#X connect 24 0 17 0;
#X connect 25 0 17 1;
#X connect 26 0 14 0;
#X connect 27 0 14 1;
#X connect 28 0 15 0;
#X connect 29 0 15 1;
#X connect 30 0 16 0;
#X connect 31 0 16 1;
#X connect 32 0 16 2;
#X connect 33 0 38 0;
#X connect 34 0 38 0;
#X connect 38 0 39 0;
#X connect 38 1 40 0;
#X connect 41 0 38 0;
#X connect 42 0 38 0;
#X connect 43 0 48 0;
#X connect 44 0 49 0;
#X connect 45 0 50 0;
#X connect 46 0 83 0;
#X connect 47 0 46 1;
#X connect 48 0 42 0;
#X connect 49 0 63 0;
#X connect 50 0 62 0;
#X connect 51 0 57 0;
#X connect 52 0 57 1;
#X connect 53 0 57 2;
#X connect 57 0 46 0;
#X connect 58 0 44 1;
#X connect 59 0 43 1;
#X connect 60 0 71 0;
#X connect 62 0 38 0;
#X connect 63 0 38 0;
#X connect 64 0 38 0;
#X connect 67 0 68 0;
#X connect 68 0 69 0;
#X connect 69 0 81 0;
#X connect 71 0 67 0;
#X connect 71 1 69 1;
#X connect 72 0 73 0;
#X connect 73 0 38 0;
#X connect 74 0 72 0;
#X connect 74 1 75 0;
#X connect 74 2 77 0;
#X connect 74 3 78 0;
#X connect 75 0 76 0;
#X connect 76 0 38 0;
#X connect 77 0 79 0;
#X connect 78 0 80 0;
#X connect 79 0 38 0;
#X connect 80 0 38 0;
#X connect 81 0 82 0;
#X connect 81 1 45 1;
#X connect 82 0 41 0;
#X connect 82 1 43 0;
#X connect 82 2 44 0;
#X connect 82 3 45 0;
#X connect 82 4 74 0;
#X connect 82 5 64 0;
#X connect 83 0 2 0;
#X connect 83 1 3 0;
#X connect 83 2 4 0;
#X restore 22 97 pd GetMidi;
#X text 20 20 Patch to Get and Send the Pitch information;
#X text 21 79 Patch to Get and Send the Midi information;
